<?xml version="1.0" standalone="no"?>
<!DOCTYPE svg PUBLIC "-//W3C//DTD SVG 1.1//EN" "http://www.w3.org/Graphics/SVG/1.1/DTD/svg11.dtd" >
<svg xmlns="http://www.w3.org/2000/svg" xmlns:xlink="http://www.w3.org/1999/xlink" version="1.1">
<metadata></metadata>
<defs>
<font id="dana_yad_alefalefalefnormal" horiz-adv-x="0" >
<font-face units-per-em="2048" ascent="1638" descent="-410" />
<missing-glyph horiz-adv-x="634" />
<glyph />
<glyph horiz-adv-x="682" />
<glyph unicode=" "  horiz-adv-x="634" />
<glyph unicode="&#x09;" horiz-adv-x="634" />
<glyph unicode="&#xa0;" horiz-adv-x="634" />
<glyph unicode="!" horiz-adv-x="413" d="M49 1714q-2 -4 7 -43t20.5 -87t13.5 -66q5 -41 19.5 -144t23.5 -177.5t14 -145.5q9 -114 19 -322.5t14 -267.5q0 -2 0.5 -14.5t1 -17.5t3 -15t6.5 -15t11 -11t17 -9l21 6q-1 5 -9.5 54.5t-9.5 76.5q-2 48 -6.5 196.5t-9.5 229.5q-16 295 -41 541q-14 148 -38 200.5 t-77 30.5zM181 9.5q8 -25.5 38 -52.5q16 -14 66 20q19 11 28.5 19t10 17.5t-1 15t-10.5 21t-13 24.5q-11 25 -38 33.5t-46 -9.5q-23 -23 -32.5 -43t-1.5 -45.5z" />
<glyph unicode="&#x22;" horiz-adv-x="444" d="M35 1364q60 -71 89 -150t17 -165.5t-71 -159.5q-7 -9 -12 -19t-9.5 -24t-7.5 -21q3 -1 7 -3.5t6 -3.5t5.5 -2t6.5 0t7.5 3t10.5 6q60 44 95.5 138t33.5 194t-45 160q-18 24 -45 43t-51 22.5t-37 -18.5zM250 782q79 63 126.5 137t61.5 149t5 148.5t-40 145.5 q-11 30 -33.5 29t-43.5 -35q50 -101 55.5 -184.5t-25.5 -158.5t-104 -169q-19 -28 -2 -62z" />
<glyph unicode="#" horiz-adv-x="950" d="M8 674q5 61 55 61q202 -8 310 -10q8 27 10 45q5 35 10.5 89t8.5 79.5t12 59.5t24 63q28 -6 33.5 -24.5t-8.5 -65.5q-2 -15 -14.5 -98.5t-20.5 -127.5q-4 -16 -4 -22q82 -4 217 -8q2 15 7 42.5t7 39.5q21 125 31 247q14 10 26.5 12t21 -16t7.5 -53q-1 -52 -20.5 -143 t-22.5 -115l-2 -14q121 -4 226 -6q22 -37 -13 -44q-21 -4 -121 1q-18 1 -51.5 2t-50.5 2q-14 -58 -16 -70q-34 -159 -41 -199h18q67 -3 136.5 -2.5t136.5 -1.5q0 -14 -1 -19.5t-6.5 -14.5t-20 -12t-38.5 -3q-32 2 -64.5 5t-64.5 5q-23 0 -111 -6q-4 -15 -8 -49 q-7 -41 -15 -96.5t-11.5 -78.5t-11.5 -54t-19 -60q-27 1 -31 16.5t4 75.5q8 43 20 123t15 101q1 3 2 9.5t2 10.5q-37 -3 -112.5 -8.5t-106.5 -7.5q-2 -9 -5 -29t-5 -29q-7 -41 -19.5 -140.5t-15.5 -119.5q-36 -23 -49.5 -2.5t0.5 74.5q7 42 19.5 123t19.5 119 q-219 -15 -240 -15q0 8 -2 14.5t2.5 12t6.5 9.5t10 7.5t13.5 6t16.5 4.5t18.5 3t21 2t22.5 1.5t24 1.5q20 1 59 4t58 4q3 16 10 45t10 45l43 199v2q-80 0 -192.5 -1t-159.5 -1zM354 391q144 12 219 12q42 189 58 269q-38 1 -111 2t-106 2q-5 -22 -27 -126t-33 -159z" />
<glyph unicode="$" horiz-adv-x="866" d="M28.5 255q-1.5 29 12 53.5t41.5 33.5q10 4 16 2t6 -6.5v-7.5q-33 -22 -41.5 -54.5t2 -63t33.5 -60.5q35 -41 75 -64t101 -33q15 242 19 439q-15 8 -29.5 16.5t-23.5 14t-25.5 17t-21.5 15.5t-24.5 19t-23.5 18q-51 40 -66.5 97t9.5 116.5t86 103.5q32 22 80.5 48.5 t64.5 31.5q-6 19 7 236q6 48 53 57q1 -1 -3 -85.5t-7 -113.5q-1 -16 -3.5 -36t-3.5 -30t0 -18q11 4 23.5 5.5t33.5 4t40 5.5q1 13 4.5 60t3.5 73q1 10 0.5 27t0.5 30.5t5 26.5q4 16 18 33.5t31 17.5q5 -7 2 -79.5t-10 -137.5q-4 -50 -6 -55q137 -8 194 -78q26 -30 18 -70 q-7 -35 -34 -32l-14 4q21 56 -19 84q-33 23 -62.5 34t-82.5 15q-3 -49 -11 -129.5t-10 -112.5l-7 -98t-13 -140q158 -64 227 -96q42 -19 94 -43q87 -43 72 -119q-16 -88 -127 -147t-276 -84l20 -164q-38 -27 -54 45q-7 34 -15 117q-16 -1 -42.5 -4t-41.5 -4q2 -42 2 -197 q-36 -4 -46 41t-8 170q-91 8 -158.5 56t-80.5 135q-3 31 -4.5 60zM123 741q1 -35 14 -63.5t37 -49t50 -36.5t59 -34l18 -9l12 387q-90 -34 -141.5 -87t-48.5 -108zM322 45q38 -6 90 6q1 28 1 83t0.5 89.5t3 82.5t5.5 89q1 15 -0.5 33.5t-1.5 22.5q-54 16 -74 24 q0 -3 -5 -89.5t-11 -192.5t-8 -148zM348 532q12 -3 35 -11t37 -11q34 433 35 455q-45 0 -95 -15q-2 -43 -4.5 -147t-4.5 -184.5t-3 -86.5zM459 53q9 4 64.5 12t119 29t111.5 60q54 40 57.5 79.5t-43.5 65.5q-64 36 -295 143q-2 -67 -14 -389z" />
<glyph unicode="%" horiz-adv-x="651" d="M70 63q-20 -47 22 -57q4 15 10.5 33t14 32.5t24 48t29.5 62.5q122 258 188 387q35 68 99.5 186t99.5 187t35 88q-9 3 -16.5 4t-14.5 -3.5t-11 -7t-11 -13.5t-9 -14t-10 -17q-26 -48 -76 -140.5t-89.5 -166.5t-73.5 -142q-34 -69 -68.5 -145t-78 -175.5t-64.5 -146.5z M78 731q0 -35 17 -54.5t48 -19.5q24 0 39 27q11 24 -0.5 40.5t-46.5 41.5q-12 9 -34.5 -5.5t-22.5 -29.5zM450.5 313q9.5 -25 29 -31t40.5 9q41 37 41 61t-43 47q-11 5 -36 -8t-29 -26q-12 -27 -2.5 -52z" />
<glyph unicode="'" horiz-adv-x="196" d="M0 1386q-11 -6 9.5 -27.5t52.5 -50t40 -42.5q22 -36 25 -81.5t-3.5 -75t-21.5 -81.5l-59 -186q25 -7 52 26.5t47.5 91t33 122t10 125t-21.5 93.5q-26 38 -105 93q-7 6 -24.5 4.5t-34.5 -11.5z" />
<glyph unicode="(" horiz-adv-x="468" d="M72 778q-39 -268 55 -491q39 -87 76.5 -161.5t79.5 -142t82 -105.5t71 -36q-5 14 -13 26t-19 25t-15 19q-95 160 -131 229q-109 202 -129 371q-29 233 41 414q44 112 139 213q20 22 55 40t63 28t49.5 23.5t21.5 29.5q-26 26 -70 12q-153 -32 -244 -182 q-90 -151 -112 -312z" />
<glyph unicode=")" horiz-adv-x="366" d="M6 1253q10 -21 65 -102.5t89 -159.5q40 -90 60 -176t18.5 -175.5t-12.5 -167.5t-44 -180t-64 -181.5t-83 -202.5q15 -14 38.5 -1t37.5 42q59 115 98 216.5t58 172.5t26 148.5t6 124t-6 120.5q-26 282 -219 522q-5 6 -10 10t-9 6t-9.5 1.5t-8.5 -0.5t-9 -3t-7.5 -4 t-7.5 -5.5t-7 -4.5z" />
<glyph unicode="*" horiz-adv-x="589" d="M2 1073q23 -5 128.5 -1t131.5 -13q-1 -18 -48 -95t-52 -104q-1 -5 2 -11.5t9 -15.5t9 -14q22 32 48 82.5t46 84.5t41 48q17 -16 40 -95q24 -77 44 -88q16 -8 37 9q0 38 -29.5 96t-37.5 95q9 0 68.5 -2.5t96 0t54.5 12.5q0 6 -1.5 11.5t-4.5 9.5t-6 7t-8.5 5.5t-9 3.5 t-9.5 2.5t-8.5 2t-8.5 1.5h-6q-56 4 -103.5 -1.5t-64.5 -0.5q11 35 31 96q17 48 23 69t7.5 45.5t-12 33t-42.5 8.5q-46 -148 -68 -207q-8 10 -77.5 82.5t-74.5 75.5q-2 1 -8.5 4.5t-10 5t-9.5 4t-10.5 2t-10 -1.5t-11 -4.5t-11.5 -9.5q22 -31 63.5 -68.5t73 -70.5t43.5 -66 q-19 2 -102.5 15t-102.5 15q-33 3 -47 -12.5t-2 -44.5z" />
<glyph unicode="+" horiz-adv-x="688" d="M47 532q0 -11 43 -4q18 2 50.5 7t59.5 8.5t50 3.5q21 0 44 1t33.5 1t21 -0.5t16.5 -3.5q2 -6 3 -18.5t3.5 -39t7.5 -55.5q1 -6 2.5 -24.5t3 -29t7.5 -21.5t16 -13q9 -1 14.5 4.5t7 16.5t1.5 27t-1 34q-6 99 -6 119q11 0 27.5 0.5t29 0.5t23.5 -1q66 -5 84 -2q3 0 10 0.5 t10 1t9 2t9 3t7 5t6 8.5q0 5 0.5 8.5t-5 6.5t-9.5 5.5t-13 4.5t-15 3.5t-16 3t-15.5 2.5t-14.5 2t-12 1q-26 4 -48 4t-40.5 -2t-24.5 -2q-7 33 -16 115q0 47 -11 49q-11 1 -24 -17.5t-15 -31.5q-2 -17 -2 -36.5t1 -43t1 -35.5q-36 -8 -117.5 -7.5t-119.5 -2.5 q-76 -7 -76 -58z" />
<glyph unicode="," horiz-adv-x="260" d="M-45 -221q8 -8 12 -10l19 6q30 8 68.5 59t58.5 103q34 87 44 178t-12 157q-4 9 -17 18.5t-26 6.5q-5 -1 -6.5 -7t-0.5 -18.5t1 -13.5q1 -11 3 -30.5t3 -35t0 -30.5q-6 -69 -39.5 -171t-68.5 -151q-17 -24 -39 -61z" />
<glyph unicode="-" horiz-adv-x="718" d="M71 534q-10 -24 10 -33q6 -3 15 -3q172 8 297 8q7 0 73 -1.5t107 -0.5q65 1 77 31q8 18 -9 24q-4 2 -8 2q-70 3 -153.5 9.5t-96.5 7.5q-33 0 -42.5 1t-44.5 -1.5t-50 -4t-59 -5.5t-72 -7q-32 0 -44 -27z" />
<glyph unicode="." horiz-adv-x="352" d="M115 44q0 -5 0.5 -9.5t3 -9.5t3.5 -8t4.5 -7.5t5 -6t5.5 -6.5l4 -5q6 -9 20 -13.5t23 -1.5q38 11 47 33q12 32 -1 59t-42 33q-16 3 -38.5 -8.5t-28.5 -27.5q-3 -6 -4.5 -11.5t-1.5 -10.5z" />
<glyph unicode="/" horiz-adv-x="749" d="M18 1126l177 -362q16 -35 49.5 -96.5t44.5 -83.5q29 -53 80.5 -152t66.5 -127q62 -112 72 -135q26 -57 55 -126t43 -101t41.5 -79.5t67.5 -101.5q31 14 31 38t-35 91q-16 34 -45.5 99t-54 117.5t-48.5 97.5q-25 49 -150.5 287t-189.5 368q-29 57 -63.5 144.5t-63.5 145 t-69 95.5q-38 -43 -9 -119z" />
<glyph unicode="0" horiz-adv-x="1204" d="M59 606q3 -278 201 -452q147 -131 278 -146.5t291 74.5q252 138 304 381q50 242 -123 358q0 64 -110 144.5t-250 128t-218 28.5q-108 -26 -181 -69.5t-115 -109t-59.5 -146t-17.5 -191.5zM127 750q27 120 96 198t174 101q61 13 103.5 14.5t93.5 -14t101 -42t136 -79.5 q-37 -25 -18 -47q30 -31 77 -63t83.5 -52t71 -53t49.5 -70.5t8 -99.5t-43 -144q-110 -247 -371 -327q-130 -39 -280 43q-179 96 -250 270.5t-31 364.5z" />
<glyph unicode="1" horiz-adv-x="575" d="M-12 451q8 -15 17 -23.5t19 -8t18.5 3t19.5 11.5t19 16.5t19 19.5t17 17q169 163 272 412q-10 -315 -10 -602q0 -21 -2.5 -82.5t-2 -87t6.5 -64.5t20 -67q5 4 14.5 9.5t12.5 8t10 8t7.5 8.5t4.5 11t2 15t-1 20q-29 221 -18.5 556t56.5 515q14 60 9.5 83t-43.5 23 q-104 -360 -236 -563q-108 -166 -231 -239z" />
<glyph unicode="2" horiz-adv-x="903" d="M29 236q-22 -114 65 -183q84 -66 174 -16q17 8 47.5 28.5t40.5 26.5q21 -13 65 -37t66 -37q32 -20 63.5 -30t57 -13t55 4t50.5 15.5t51 26.5t48 31.5t50 36.5l12 9q49 37 0 82q-5 -5 -17.5 -20.5t-19 -22.5t-16.5 -17t-20 -16q-62 -43 -110.5 -60.5t-96.5 -9.5t-92 34.5 t-105 78.5q305 379 340 697q22 216 -110 362q-47 52 -113.5 81.5t-138.5 24t-123 -54.5q-40 -37 -57 -84.5t-11 -91t27.5 -84t59.5 -64.5t84.5 -32t103.5 14q48 16 39 58q-72 -30 -123 -25t-103 60q-33 34 -36.5 80.5t16 84.5t56.5 64t79 25q168 -9 258 -166 q41 -71 49 -153.5t-6 -150.5t-45 -151q-16 -41 -39.5 -88.5t-41 -78t-51 -86.5t-46.5 -79q-13 -22 -30 -43.5t-42 -49.5t-37 -42q-56 49 -109 73.5t-118 35.5q-89 13 -100 -47zM90 213q9 9 30 10.5t34 -4.5q7 -3 32.5 -13t36.5 -14.5t31 -14.5t36.5 -21t33.5 -25 q-66 -86 -160 -63q-40 10 -71.5 63t-2.5 82z" />
<glyph unicode="3" horiz-adv-x="813" d="M4 143q63 -30 74 -39q65 -56 143 -87t154 -35.5t148.5 19.5t127.5 71.5t90.5 126.5t38.5 178q4 94 -40 165t-126 115q-86 44 -178 15q78 116 93 147q34 70 29 169q-1 6 -1 11q-5 79 -46.5 138.5t-102.5 72.5q-57 12 -117.5 -4t-109 -51t-86 -76.5t-58.5 -81.5 q-21 -38 20 -65l32 48t37.5 54t34.5 40.5t46 43.5q56 43 118 49.5t111.5 -30t65.5 -109.5q22 -89 -28 -201t-124 -170q-10 -7 -20 -17t-15.5 -16t-17.5 -21t-16 -19q10 -11 19 -14t15.5 -1t23 10t28.5 13q8 4 30 17t35 16q124 33 213 -56q65 -61 83.5 -142t-17.5 -165 t-87 -134t-109 -68t-132 -9.5t-147.5 34.5t-163.5 71q-12 8 -40 6t-28 -19z" />
<glyph unicode="4" horiz-adv-x="800" d="M10 401q338 -59 582 19q0 -40 -1 -104.5t-1 -104.5t1 -85t5 -75t12 -47q9 1 16 4t11.5 7t7.5 10.5t4.5 10.5t2.5 12.5t1 12v12.5v11q1 49 0 156.5t0 156.5q0 13 3 24t8.5 22.5t7.5 17.5q40 129 60 211.5t24 158.5q2 17 -11 35.5t-45 18.5q-19 -63 -48 -205.5t-32 -153.5 q-8 -29 -18 -42.5t-33 -22.5q-27 -11 -57 -19t-53.5 -13t-58.5 -6.5t-53 -2.5t-58.5 1.5t-53 3.5t-59 5.5t-55.5 5.5q-15 2 -19.5 10t-2.5 14.5t7 22.5q19 45 79.5 168t86.5 201q14 46 26.5 103t19 91.5t18.5 109t16 95.5q22 119 -47 142q-13 -38 -11 -61t7 -63t2 -67 q-56 -445 -274 -751q-7 -10 -17 -50z" />
<glyph unicode="5" horiz-adv-x="864" d="M18 371q-4 49 35 78q16 -87 38 -151.5t57.5 -120.5t90 -87.5t126.5 -38.5q151 -12 275.5 87t147.5 261q11 84 -26.5 165t-118.5 122q-224 119 -467 49q-46 -12 -56.5 -2t-2.5 58q21 148 -17 299l-16 -13q-4 -3 -9.5 -4t-13 -1t-10.5 -1q0 3 -1 11t-0.5 14t3.5 10 q44 80 146 84q37 1 127 6t134 5.5t111 -2t117 -14.5t94 -34q-5 -19 -15.5 -24t-41.5 -1q-32 3 -108.5 12t-118.5 11q-29 2 -80 1.5t-80 0.5q-116 4 -188 -33v-2q7 -54 16 -152t12 -128v-21q21 -1 129 -5.5t164 -10.5q194 -19 315 -164q56 -68 60 -180q4 -97 -42 -195 t-132 -167.5t-189 -80.5q-223 -24 -352 113q-105 113 -113 246z" />
<glyph unicode="6" horiz-adv-x="987" d="M12 401q7 -137 112.5 -253.5t242.5 -141.5q228 -39 462 107q69 42 108.5 91t39.5 122q0 123 -82 231q-68 89 -185 59q-96 -25 -170 -111q-81 -95 -70 -190q7 -58 50 -102q9 -9 29 -21.5t24 -15.5q5 15 5 17q-4 10 -25.5 51.5t-26.5 64.5q-8 45 10 93.5t52.5 84.5 t78.5 61.5t87.5 24.5t79.5 -26q53 -47 76.5 -107t15.5 -117.5t-46 -109t-102 -80.5q-129 -58 -248 -80q-140 -30 -267 42.5t-173 191.5q-71 186 -4 428q92 338 406 491q70 34 121.5 50t118.5 13t128 -38q12 43 -27.5 66.5t-99.5 17.5q-328 -25 -557 -318 q-181 -227 -164 -596z" />
<glyph unicode="7" horiz-adv-x="946" d="M20 1221q-4 -31 16.5 -44.5t55.5 -13.5q19 -1 89 -5t95.5 -5.5t86.5 -4t96.5 -1.5t87.5 2.5t98 6.5t92 13q-2 -7 -5.5 -16.5t-4.5 -13.5q-30 -88 -90 -264.5t-90 -264.5q-7 -22 -17.5 -29.5t-33.5 -9.5q-69 -5 -235.5 0.5t-197.5 -0.5q1 -12 7 -21t19 -15t29 -10t41.5 -6 t50.5 -2.5t63.5 0t73 1.5t85.5 1.5t96 0.5q-74 -309 -71 -528q26 -11 43.5 11t19.5 48q5 42 13.5 156.5t20 192t30.5 124.5q122 25 327 25q12 25 4 41t-43 16q-36 0 -142.5 -10t-131.5 -10q7 59 88.5 281.5t136.5 316.5q15 31 6 43q-9 13 -41 8q-34 -4 -93 -14t-107.5 -16.5 t-91.5 -6.5q-97 0 -214.5 11.5t-261.5 11.5z" />
<glyph unicode="8" horiz-adv-x="768" d="M-31 1085q1 -15 17.5 -37.5t32.5 -38.5t51 -48q40 -34 113 -93t115.5 -94.5t66.5 -58.5q-1 -3 -31 -72t-40.5 -94t-38 -94t-43 -113.5t-35 -107t-32.5 -117.5q-13 -59 14.5 -98.5t82.5 -45.5q53 -3 92 9q211 71 344 194q40 40 43 96q1 55 -40 148.5t-83 138.5 q-29 30 -80.5 87t-71.5 79q15 27 62 107t70 126q88 166 81 291q-3 46 -31.5 80t-70.5 37q-105 8 -189.5 5.5t-166 -38t-156.5 -110.5q-30 -32 -48 -55t-23.5 -45.5t-4.5 -37.5zM30.5 1099q-1.5 33 39.5 79q63 71 161.5 100t249.5 37q80 3 111.5 -38t11.5 -120 q-12 -51 -35.5 -106.5t-41.5 -90t-57.5 -103.5t-55.5 -99q-47 40 -135.5 105t-128.5 100q-12 10 -36.5 32.5t-37.5 32.5q-44 38 -45.5 71zM209 184q38 147 84.5 254t122.5 232q7 -6 29.5 -27.5t30 -29t27 -26.5t28 -29.5t23.5 -28t24 -31.5t19.5 -32t18.5 -36 q32 -86 38 -133.5t-11 -76.5t-63 -58q-114 -71 -230 -119q-25 -13 -49.5 -18.5t-49.5 0.5t-40 28q-24 44 -2 131z" />
<glyph unicode="9" horiz-adv-x="937" d="M32.5 840.5q2.5 -73.5 28.5 -134t79.5 -103.5t125.5 -52q153 -19 306 36.5t223 157.5q12 -56 11.5 -159.5t-7.5 -177.5q-7 -80 -23.5 -138.5t-56.5 -107.5q-67 -79 -180 -109t-231 -3t-197 104q-16 -13 -20 -27t3 -26.5t19 -24.5t30.5 -22.5t36.5 -18.5t37 -15 q63 -25 146 -28t160.5 13t143.5 50t97 78q51 73 69.5 155.5t22.5 190.5q2 55 -4 148t-4 168.5t22 142.5q6 17 0.5 37.5t-22.5 28.5q-23 -51 -29 -82q-4 9 -13 29.5t-13.5 29.5t-13.5 23t-19 26q-114 122 -213 162q-58 23 -103 34.5t-99.5 8.5t-102.5 -27q-71 -34 -120.5 -95 t-70.5 -130t-18.5 -142.5zM80 899q9 139 125 234q89 78 250 36q104 -27 207 -110q52 -46 82 -88t38 -97q8 -49 -27 -102t-88.5 -89.5t-105.5 -51.5q-117 -30 -205.5 -33t-155.5 24t-98 96.5t-22 180.5z" />
<glyph unicode=":" horiz-adv-x="409" d="M115 780q24 -74 55.5 -77.5t73.5 51.5q-2 10 -5 27.5t-5 25.5t-8 17.5t-16.5 13.5t-27.5 4q-35 0 -55.5 -16.5t-11.5 -45.5zM164 25q8 -17 28 -33t33 -12q21 4 47.5 23t24.5 28q-12 64 -61 80q-39 13 -64 -15q-24 -27 -8 -71z" />
<glyph unicode=";" horiz-adv-x="366" d="M37 -221q27 -27 79 31.5t79 126.5q34 87 44 178t-12 157q-4 9 -17 18.5t-26 6.5q-4 -1 -5.5 -11t-0.5 -27t2.5 -34t3 -35t0.5 -28q-6 -69 -39.5 -171t-68.5 -151q-17 -24 -39 -61zM113 780q24 -74 55.5 -77.5t73.5 51.5q-2 10 -5 27.5t-5 25.5t-8 17.5t-16.5 13.5 t-27.5 4q-35 0 -55.5 -16.5t-11.5 -45.5z" />
<glyph unicode="&#x3c;" horiz-adv-x="675" d="M27 559q-1 -7 6.5 -18.5t15.5 -16.5q46 -28 114.5 -69.5t106.5 -64t88.5 -52.5t78 -46t57 -32t44.5 -22.5t21 -6.5q23 0 31 23q-52 44 -128.5 89.5t-242.5 133.5q-21 11 -58.5 36.5t-56.5 37.5q23 9 52.5 22t38.5 17q28 12 96.5 39.5t106.5 44t88 39t79.5 41t42.5 34.5 q-12 24 -39 13q-122 -44 -254 -99l-256 -110q-11 -5 -21 -14.5t-11 -18.5z" />
<glyph unicode="=" horiz-adv-x="1114" d="M59 381q8 -35 62 -35q6 0 180 12q78 5 352.5 -9.5t378.5 -29.5q0 26 -17 44.5t-48 21.5q-72 7 -255.5 14t-242.5 4q-65 -3 -184 -4.5t-166 -3.5q-44 0 -60 -14zM59 674q0 -29 20.5 -37.5t74.5 -3.5q14 1 43 6t45 6q58 2 293.5 12t361.5 13q37 2 101.5 -3t76.5 1 q-3 23 -20 35t-39 12l-330 -13q-95 -3 -284.5 -8t-284.5 -8q-39 0 -58 -12z" />
<glyph unicode="&#x3e;" horiz-adv-x="716" d="M68 162q28 2 67 16t104.5 48t116 62t159 90t175.5 99q-10 23 -43 33q-188 59 -424 242q-46 38 -104 69l-4 3l-5 2.5t-5 2t-6 0.5t-5.5 -2t-7.5 -4t-8 -8q3 -20 20 -41.5t50.5 -45.5t60.5 -41t75.5 -45.5t69.5 -41.5q38 -23 213 -123q-215 -117 -452 -250q-15 -9 -21 -13 t-16 -19t-10 -33z" />
<glyph unicode="?" horiz-adv-x="614" d="M-19 1405q-4 -18 6.5 -33.5t35.5 -21.5q27 76 92 123.5t138.5 57t146.5 -17.5t116 -88q37 -50 8 -122q-58 -146 -213 -363q-120 -168 -164 -350q-29 -116 21 -176q71 -82 201 -58q85 16 105.5 35.5t10.5 59.5q-71 -39 -142 -43t-113.5 34.5t-28.5 110.5q36 209 196 414 q130 166 187 336q30 86 -9.5 155t-117.5 101q-161 66 -289 14q-73 -32 -148 -103q-14 -13 -24.5 -30t-14.5 -35zM211 92q-3 -34 9.5 -61t31.5 -29q27 -3 61 21.5t37 48.5q1 29 -17 51t-44 24q-34 1 -55 -14t-23 -41z" />
<glyph unicode="[" horiz-adv-x="542" d="M82 1073q4 -48 21.5 -215t23.5 -258q11 -151 15.5 -226t4.5 -200t-12 -227q-3 -27 16.5 -45.5t47.5 -18.5q74 4 169 11.5t169 11.5q37 5 45 12t2 31h-1h-1h-1h-1h-1l-2 1h-1h-1h-1h-1h-1h-1h-1h-1h-1h-1h-1l-1 1h-1h-1h-1h-1h-1h-1h-2h-1h-1h-1l-1 1h-1h-1h-1h-1h-1h-1 h-2q-127 11 -197 12q-58 2 -108 3q-6 0 -16 11t-11 20q-6 43 -10 133q-11 283 -23 481q-9 154 -28 435q-1 23 7 32t31 11q107 6 236 22q8 1 17 4t19.5 7.5t16.5 6.5q-3 14 -9.5 21.5t-18 10.5t-20.5 3t-29 -1t-31 -1q-25 -1 -67.5 -5t-77.5 -6t-66 -1q-62 0 -73 -10.5 t-5 -67.5z" />
<glyph unicode="\" horiz-adv-x="749" d="M4 1240q0 -24 35 -91q17 -36 45.5 -99.5t53.5 -116t48 -97.5q21 -41 148.5 -283.5t191.5 -372.5q29 -57 64 -144.5t64 -145t69 -95.5q37 42 8 119l-176 362q-17 35 -50.5 97.5t-43.5 83.5q-23 41 -47.5 87.5t-54.5 103t-46 87.5q-58 104 -71 135q-26 57 -55 126t-43 101 t-41.5 79.5t-67.5 101.5q-31 -14 -31 -38z" />
<glyph unicode="]" horiz-adv-x="522" d="M-63 1163q32 -16 66 -21t64.5 -3t100 6t139.5 4q10 -216 32 -626.5t32 -608.5l-269 -12q-93 -3 -43 -84q11 2 36.5 7.5t39.5 6.5q12 2 76 2h151q49 1 66.5 21t11.5 67q-16 164 -20 244l-37 723q-2 45 -5 134t-5 134q-1 33 -21 49t-49 11q-57 -8 -175.5 -8.5t-147.5 -2.5 q-26 0 -43 -43z" />
<glyph unicode="^" horiz-adv-x="815" d="M90 750q54 -44 86 22q16 36 47 101t55.5 118.5t45.5 100.5q10 24 18.5 49.5t12 41t8.5 28.5t10.5 18.5t15.5 5.5q7 -13 22 -50.5t25 -54.5q34 -56 102.5 -167.5t102.5 -167.5q39 -57 84 -15l-23 46t-26 51q-168 288 -270 456q-6 10 -21 18.5t-29 10.5q-6 1 -15.5 -12 t-12.5 -25q-4 -12 -7.5 -38t-7.5 -38q-8 -25 -30 -81t-31 -87q-49 -167 -146 -290q-6 -7 -10 -22t-6 -19z" />
<glyph unicode="_" horiz-adv-x="589" d="M47 43q-6 -17 1 -29t20 -12q17 -2 213.5 -0.5t216.5 4.5q7 1 23.5 9t23.5 10q-5 22 -19 34.5t-28 3.5q-22 -14 -37 -14l-87 5q-292 20 -292 16q-4 1 -18 -10t-17 -17z" />
<glyph unicode="{" horiz-adv-x="532" d="M20 465q-2 -15 9 -19t32.5 -4.5t32.5 -5.5q52 -23 111 10q2 -4 7.5 -13t6.5 -15q17 -126 39 -355q5 -43 9 -129.5t9 -128.5q5 -38 28.5 -61t57.5 -14q25 5 53 14t46.5 17t51.5 22t48 20q3 1 5 4.5t4.5 8.5t4.5 8q-26 11 -58.5 7t-54 -12.5t-54 -19t-58.5 -12.5 q-3 11 -10.5 33t-12 38.5t-5.5 32.5q-2 33 -3.5 122.5t-7.5 136.5q-7 59 -30 170.5t-25 123.5q-12 54 -12 76q1 32 7 96.5t7.5 97t-2.5 95.5q-5 48 -15 106t-18 96.5t-23.5 110t-21.5 99.5q-8 38 18 91t60 66q34 15 85.5 -3.5t76.5 -55.5q7 -13 21 -40.5t22 -41.5 q16 15 19 34.5t-5.5 39.5t-21 38t-29.5 35q-58 58 -146.5 58t-117.5 -62q-43 -87 -33 -190q6 -52 17.5 -108.5t29 -130.5t25.5 -109q32 -154 -17 -320q-55 6 -108 -11.5t-54 -45.5z" />
<glyph unicode="|" horiz-adv-x="385" d="M137 1262q14 -137 19 -236q1 -39 0 -118.5t0 -119.5q0 -1 6 -430q0 -188 -2 -284q-4 -172 -8 -254q-2 -41 15 -54.5t52 1.5q3 2 11 4t12 4q-2 6 -6.5 15t-7 16.5t-3.5 13.5q-2 43 -6.5 122t-7.5 143.5t-4 121.5q-1 87 1 262t1 262q0 81 -1 171.5t-2.5 201.5t-2.5 172 q0 26 -8 39.5t-29 9.5t-26 -19.5t-3 -43.5z" />
<glyph unicode="}" horiz-adv-x="495" d="M-2 1219q9 11 25.5 32t23.5 29t20 21.5t21.5 17.5t20.5 8t25 1.5t28 -9.5q21 -10 38 -38.5t19 -53.5q4 -49 6 -104t3.5 -121.5t2.5 -102.5q1 -29 2 -91.5t3.5 -109.5t9.5 -90q3 -19 7.5 -40t5 -27.5t2 -15t-3.5 -14t-9.5 -12.5t-17.5 -22.5t-25 -32.5 q-27 -37 -32.5 -86.5t1.5 -88t23 -93.5q14 -48 44 -136t38 -114q10 -32 -6 -43.5t-40 -1.5q-41 14 -129 72q-15 10 -45 35q-9 -6 -16 -13q3 -5 10.5 -21.5t14 -27.5t14.5 -20q9 -10 20.5 -20t29.5 -23.5t24 -18.5q29 -26 70 -28.5t73 8.5q26 7 41.5 27t5.5 51 q-47 160 -61 200q-20 56 -26.5 75.5t-17 65t-6.5 81t19 71.5q20 48 41.5 58t71.5 -7q30 -12 53 -2.5t37 45.5q-6 3 -33 16t-43 17q-72 10 -78 72q-18 225 -16 305q0 5 1.5 43.5t1.5 47t0.5 42.5t0 46.5t-1.5 42t-3.5 46.5t-6 41.5t-8.5 45.5t-11 42q-20 59 -68 79.5 t-108 -3.5q-52 -21 -75 -60.5t-11 -92.5z" />
<glyph unicode="~" horiz-adv-x="954" d="M68 362q0 -28 34 -32q0 13 10 45t19 45q141 212 287 51q63 -69 142 -93.5t149 7.5q164 66 178 270q1 22 -7.5 30.5t-19.5 6.5q-20 -90 -38 -134.5t-46 -72.5q-51 -51 -89 -67t-93 -10q-27 3 -62 29t-64.5 56.5t-69 59.5t-74.5 37q-52 11 -114 -21.5t-104 -91.5t-38 -115z " />
<glyph unicode="&#xa9;" horiz-adv-x="1302" d="M45 502q-3 -161 96 -344q106 -202 348 -248q175 -36 355 35q218 81 319 207q76 94 90.5 195t-24.5 214q-19 66 -90 84l18 -39q66 -113 52 -237.5t-105 -214.5q-243 -240 -578 -205q-194 20 -293 155q-196 273 -116 553q82 276 323 398q148 73 363 43q109 -18 204 -93 t119 -174q2 -7 6.5 -41.5t6.5 -41.5q20 0 21 42t-5 74q-12 85 -104.5 168t-194.5 105q-404 86 -653 -213q-155 -191 -158 -422zM291 506q30 -233 190 -344q102 -67 189 -61.5t184 75.5q11 8 24 16.5t19 12t10.5 9t3.5 11t-6 13.5q-94 -46 -123 -58q-155 -61 -274 23 q-107 76 -148 233q-22 88 -6 150q34 119 99.5 175t187.5 56q24 1 53 -1t46.5 -4t57 -7.5t54.5 -7.5q-7 6 -23.5 20.5t-25.5 20.5q-92 49 -198.5 35t-182.5 -74q-153 -120 -131 -293z" />
<glyph unicode="&#xab;" horiz-adv-x="444" d="M35 1364q60 -71 89 -150t17 -165.5t-71 -159.5q-7 -9 -12 -19t-9.5 -24t-7.5 -21q3 -1 7 -3.5t6 -3.5t5.5 -2t6.5 0t7.5 3t10.5 6q60 44 95.5 138t33.5 194t-45 160q-18 24 -45 43t-51 22.5t-37 -18.5zM250 782q79 63 126.5 137t61.5 149t5 148.5t-40 145.5 q-11 30 -33.5 29t-43.5 -35q50 -101 55.5 -184.5t-25.5 -158.5t-104 -169q-19 -28 -2 -62z" />
<glyph unicode="&#xad;" horiz-adv-x="718" d="M71 534q-10 -24 10 -33q6 -3 15 -3q172 8 297 8q7 0 73 -1.5t107 -0.5q65 1 77 31q8 18 -9 24q-4 2 -8 2q-70 3 -153.5 9.5t-96.5 7.5q-33 0 -42.5 1t-44.5 -1.5t-50 -4t-59 -5.5t-72 -7q-32 0 -44 -27z" />
<glyph unicode="&#xbb;" horiz-adv-x="444" d="M35 1364q60 -71 89 -150t17 -165.5t-71 -159.5q-7 -9 -12 -19t-9.5 -24t-7.5 -21q3 -1 7 -3.5t6 -3.5t5.5 -2t6.5 0t7.5 3t10.5 6q60 44 95.5 138t33.5 194t-45 160q-18 24 -45 43t-51 22.5t-37 -18.5zM250 782q79 63 126.5 137t61.5 149t5 148.5t-40 145.5 q-11 30 -33.5 29t-43.5 -35q50 -101 55.5 -184.5t-25.5 -158.5t-104 -169q-19 -28 -2 -62z" />
<glyph unicode="&#x5b0;" d="M328 -444q4 22 24 36q12 9 31.5 7t32.5 -15q29 -29 8 -61q-10 -19 -39 -27q-20 -3 -43 17q-18 21 -14 43zM330 -227q1 17 16 28t35 11q41 0 49 -37q5 -23 -10 -45q-13 -19 -41 -19q-55 0 -49 62z" />
<glyph unicode="&#x5b1;" d="M569 -248q-2 29 12 45.5t40 16.5q30 0 43 -19q12 -24 8 -45q-10 -37 -54 -37q-20 0 -33.5 11t-15.5 28zM676 -449q-3 27 10 46q4 5 14.5 9.5t18.5 6.5t10 2q55 0 49 -61q-3 -17 -17 -28t-34 -11q-44 0 -51 36zM788 -211q16 22 39 25q20 6 43 -17q18 -19 15 -41.5 t-23 -36.5q-13 -11 -33 -8.5t-32 15.5q-31 28 -9 63zM969 -444.5q4 20.5 24 36.5q12 10 31 8t33 -16q29 -29 8 -61q-13 -21 -39 -25q-20 -6 -43 17q-18 20 -14 40.5zM971 -225q2 15 16.5 27t34.5 12q41 0 49 -37q4 -22 -10 -47q-14 -17 -41 -17q-58 0 -49 62z" />
<glyph unicode="&#x5b2;" d="M561 -225q0 12 1 16.5t6 8t16 3.5h37h51h33h100q8 0 13 -1.5t6.5 -5.5t2.5 -5.5t1 -8.5l-1 -7v-27q0 -14 -5 -18t-21 -4h-101q-7 0 -18 1t-18 1q-6 0 -36 -1t-44 -1t-17.5 4t-3.5 18q0 5 -1 13t-1 14zM954 -227q1 17 16 28t36 11q41 0 49 -37q4 -22 -11 -45 q-13 -19 -40 -19q-56 0 -50 62zM954 -444q3 22 23 36q12 9 31 7t32 -15q29 -29 11 -61q-13 -20 -41 -27q-21 -3 -41 17q-18 21 -15 43z" />
<glyph unicode="&#x5b3;" d="M500 -212q0 3 2 8t6.5 6t13.5 1h78h51h33h80q8 0 13 -1.5t6.5 -5.5t2.5 -5.5t0 -8.5v-7v-27q0 -12 -11 -15t-56 -3h-39q-15 0 -10 -23q2 -11 12 -26q2 -4 6 -13.5t5 -13t2.5 -10.5t-0.5 -13.5t-7 -13.5q-13 -18 -39 -25q-25 -4 -43 17q-9 9 -9.5 21t4.5 22.5t12.5 26 t9.5 28.5q4 19 2 22t-13 3q-16 -2 -90 -2q-14 0 -17 3t-3 15q0 5 -1 13t-1 14v13zM872 -227q1 17 16 28t36 11q41 0 49 -37q5 -23 -10 -45q-13 -19 -41 -19q-56 0 -50 62zM872 -444q3 22 23 36q12 9 31 7t32 -15q29 -29 11 -61q-13 -20 -41 -27q-21 -3 -41 17q-18 21 -15 43 z" />
<glyph unicode="&#x5b4;" d="M334 -238q4 28 24 41q13 10 33 8t33 -16q30 -30 10 -65q-12 -22 -41 -29q-21 -4 -43 18q-19 19 -16 43z" />
<glyph unicode="&#x5b5;" d="M455 -248q-6 62 51 62q28 0 41 -19q13 -20 8 -45q-8 -37 -51 -37q-20 0 -33.5 11t-15.5 28zM655 -211q16 22 39 25q23 7 43 -17q18 -19 15 -41.5t-23 -36.5q-13 -11 -32.5 -8.5t-32.5 15.5q-29 26 -9 63z" />
<glyph unicode="&#x5b6;" d="M461 -238q-6 62 51 62q28 0 41 -19q13 -20 8 -45q-6 -21 -17.5 -28.5t-33.5 -7.5q-20 0 -34 10.5t-15 27.5zM547 -397q-5 23 10 45q12 18 41 18q55 0 49 -61q-1 -17 -16 -28t-35 -11q-41 0 -49 37zM657 -201q16 22 39 25q23 6 43 -17q18 -19 15 -41t-23 -36 q-13 -9 -32.5 -8t-32.5 14q-28 28 -9 63z" />
<glyph unicode="&#x5b7;" d="M436 -221q0 13 1 18t5.5 7.5t16.5 2.5h57h53h41h37q8 0 13.5 -1t7.5 -5t2.5 -6t0 -8.5t-0.5 -7.5q0 -7 1 -14t1 -11q0 -16 -5 -19t-22 -3h-41h-43h-102q-15 0 -18 3t-3 17q0 5 -1 13t-1 14z" />
<glyph unicode="&#x5b8;" d="M434 -218q0 18 6 21q5 2 17 2h59h53h33h62q7 0 11 -1.5t6.5 -2.5t3.5 -4.5t1 -5.5v-7v-7v-25q0 -13 -4.5 -15.5t-22.5 -2.5h-63q-13 0 -10 -23q0 -3 12 -26q1 -3 3.5 -8t4 -7.5t3 -6.5t2 -6.5t1.5 -6.5t1 -7t-1 -6.5t-2.5 -7.5t-3.5 -8q-13 -20 -41 -27q-21 -3 -41 17 q-9 10 -9.5 22.5t4 22.5t12 26t10.5 27q3 19 0.5 23t-11.5 2h-73q-17 0 -20 2.5t-3 13.5v27v5z" />
<glyph unicode="&#x5b9;" d="M334 1239q4 28 24 41q13 10 33 8t33 -16q31 -31 10 -66q-11 -21 -41 -28q-21 -4 -43 18q-19 19 -16 43z" />
<glyph unicode="&#x5ba;" d="M334 1239q4 28 24 41q13 10 33 8t33 -16q31 -31 10 -66q-11 -21 -41 -28q-21 -4 -43 18q-19 19 -16 43z" />
<glyph unicode="&#x5bb;" d="M530 -256q-3 61 52 61q31 0 43 -18q11 -21 6 -45q-10 -37 -51 -37q-20 0 -34.5 11t-15.5 28zM655 -381q-3 29 12.5 44t39.5 15q30 0 43 -20q13 -27 8 -43q-14 -41 -58 -41q-18 0 -30.5 14.5t-14.5 30.5zM786 -510q-6 41 27 55q12 6 25 6q29 0 41 -18q13 -20 8 -45 q-8 -28 -33 -37h-18q-20 0 -34.5 11t-15.5 28z" />
<glyph unicode="&#x5bc;" d="M326 743q0 22 22 39q12 9 30.5 7t31.5 -15q28 -28 10 -61q-15 -20 -37 -27q-22 -3 -41 16q-20 17 -16 41z" />
<glyph unicode="&#x5be;" horiz-adv-x="530" d="M48 989q-9 -22 10 -32q7 -3 16 -3q196 3 334 7q64 1 77 30q7 18 -10 24q-3 1 -8 1q-153 4 -375 0q-33 0 -44 -27z" />
<glyph unicode="&#x5c1;" d="M334 1239q4 28 24 41q13 10 33 8t33 -16q31 -31 10 -66q-11 -21 -41 -28q-21 -4 -43 18q-19 19 -16 43z" />
<glyph unicode="&#x5c2;" d="M334 1239q4 28 24 41q13 10 33 8t33 -16q31 -31 10 -66q-11 -21 -41 -28q-21 -4 -43 18q-19 19 -16 43z" />
<glyph unicode="&#x5d0;" horiz-adv-x="960" d="M115 365q3 -75 13.5 -210t12.5 -171q0 -13 7.5 -30.5t17.5 -23.5q5 -2 8 -2t5 3t3 6t1 8v8.5t-0.5 7t-0.5 4.5q0 235 -6 352q-18 360 21 648q3 11 -4.5 26t-20.5 25q-9 7 -20 -9t-13 -30q-13 -96 -22 -256q-5 -275 -2 -356zM270 414q-18 -174 68.5 -271t257.5 -123 q56 -9 190 3q91 11 144 79q9 13 -13 8l-45 -16q-177 -59 -362 8q-86 32 -135.5 92.5t-52.5 145.5q-9 173 116 301q62 63 137 81.5t150 -20.5q18 -11 52.5 -36t58 -40.5t30.5 -15.5q13 0 -13 39l-9 13q-39 48 -86 83q-120 76 -217 33q-119 -51 -188 -144t-83 -220z" />
<glyph unicode="&#x5d1;" horiz-adv-x="1110" d="M-2 625q80 30 147 53q96 33 179 48t177.5 8t180.5 -42q240 -96 299 -317q31 -116 -27 -205t-166 -125q-91 -26 -166 -3t-139 89q-30 30 -57.5 67t-60.5 87t-50 73q-14 17 -41 21q-3 0 -10 -13t-8 -22q-5 -20 -13.5 -63.5t-13.5 -65.5q-8 -29 -29 -97.5t-30 -105.5 q-12 -32 6 -53q6 -7 14 -0.5t18 21.5t15 20q2 2 2 8l84 250q21 -30 51 -63q74 -92 103 -121q63 -61 190 -86q136 -26 239 40.5t142 182.5q58 168 -73 348q-150 215 -451 225q-204 6 -393 -61q-83 -33 -119 -98z" />
<glyph unicode="&#x5d2;" horiz-adv-x="831" d="M-43 -14q-15 -188 117 -248q69 -32 229 -57q72 -9 148 4q100 13 221 43q52 12 30 65q-18 -6 -34 -14q-2 -1 -14 -7.5t-19 -7.5q-94 -19 -167.5 -26t-161.5 1t-165 38q-27 11 -45 20t-39 24t-32.5 36.5t-12.5 48.5q-4 103 21 164q57 138 157.5 234.5t258.5 154.5 q20 -8 68.5 -46t92.5 -61q87 -46 174 -8q17 7 25 27q15 53 -34.5 92t-125.5 53t-145 4q-4 0 -11.5 -1t-12.5 -1t-9 2q-4 10 -16.5 37.5t-19.5 44.5t-15.5 40.5t-11.5 41.5q-14 83 -0.5 133t59.5 101q-38 30 -75.5 -15.5t-39.5 -105.5q0 -92 13.5 -159.5t58.5 -127.5 q-86 -31 -107 -43l-36 -22.5t-38.5 -24.5t-33.5 -23t-36 -27.5t-30 -28.5t-30 -34q-40 -54 -55.5 -77t-43.5 -69.5t-40.5 -88t-16.5 -86.5zM526 475q142 -4 217 -67q18 -15 13 -22t-25 -7q-27 0 -102.5 33.5t-102.5 62.5z" />
<glyph unicode="&#x5d3;" horiz-adv-x="825" d="M-2 768q15 13 22 16q83 61 152 93.5t147 31.5q144 -4 226 -30q92 -28 129 -76.5t31 -134.5q-1 -17 -5 -32.5t-7 -26.5t-12 -24.5t-13 -20t-19 -20.5t-20 -18.5t-25 -21.5t-26 -23q-228 83 -357 -35q-46 -43 -35 -112q2 -11 21 -23.5t31 -11.5q72 1 122.5 8.5t91.5 26 t61 31.5t62 45q65 -58 93 -118t13.5 -123.5t-77.5 -119.5q-21 -19 -63.5 -54t-53.5 -44q4 -7 9 -10q116 2 204 141q34 50 42.5 99t-8 96.5t-41 86t-64.5 85.5q102 82 131 200q19 80 -20.5 155t-102.5 105q-241 114 -512 2q-96 -41 -127 -143zM236 350q13 63 96 88.5 t176 -0.5q-37 -56 -272 -88z" />
<glyph unicode="&#x5d4;" horiz-adv-x="1089" d="M55 813q-35 -59 2 -70q55 87 135.5 127.5t204.5 53.5q22 2 43 0.5t46 -10.5t37 -13.5t43.5 -20t37.5 -18.5q120 -51 240 -174q19 -20 35 -45t26.5 -44t22 -51t16.5 -48t16 -53.5t15 -49.5q23 -67 10 -135q-26 -127 -112 -203t-222 -118q-7 -2 -19.5 -12.5t-15.5 -12.5 l7 -10q12 2 37.5 4.5t44.5 6t36 9.5q35 14 127 70q153 100 172 291q4 17 1.5 44t-3.5 43t-8.5 41.5t-12 40.5t-14.5 40t-16 39.5t-16.5 39.5t-16.5 39q-24 66 -49 93q-81 91 -235 194q-106 73 -235.5 81t-232.5 -39.5t-147 -129.5zM252 63q31 0 35 3q142 100 184 135 q92 73 92 190q0 56 -35 101.5t-82 48.5q-37 2 -85 -22t-75 -59t-10 -59q9 6 32.5 23.5t31.5 23t26.5 17t28 13.5t24 5t25.5 -1t23 -13q28 -20 36 -56t-5 -77q-12 -36 -25 -49q-29 -29 -62.5 -61.5t-74.5 -72t-64 -61.5q-7 -6 -20 -29z" />
<glyph unicode="&#x5d5;" horiz-adv-x="344" d="M131 109q-4 -93 20 -149q14 -31 22 -9q6 15 5 55q-1 46 1 103t6 130.5t5 102.5q6 91 10.5 300t6.5 255q1 12 4.5 48t3.5 56q0 25 -5.5 32.5t-25.5 4.5q-26 -5 -28 -34q-7 -90 -15.5 -475.5t-9.5 -419.5z" />
<glyph unicode="&#x5d6;" horiz-adv-x="903" d="M-37.5 -84q6.5 -15 25.5 -25q257 -150 520 -88q209 52 317 220q85 138 13 274q-20 40 -47.5 73t-57 58t-74.5 46t-85.5 36t-104.5 30.5t-117 26t-137 25.5q3 11 9.5 27t10 28t5.5 23q28 108 41 188q1 8 -9 25.5t-12 21.5q-3 -3 -9.5 -10.5t-10.5 -11.5t-8 -10.5t-5 -12.5 q-12 -38 -34.5 -123.5t-38.5 -130.5q-16 -46 -6.5 -61t59.5 -19q186 -17 311.5 -56t212.5 -126q81 -84 89 -141.5t-48 -149.5q-118 -200 -405 -211q-37 -2 -64.5 2.5t-53 13l-105 35t-175.5 54.5q-13 -16 -6.5 -31z" />
<glyph unicode="&#x5d7;" horiz-adv-x="927" d="M88.5 708.5q-7.5 -24.5 9.5 -42.5q6 9 18 23.5t15 19.5q2 -94 -5 -248t-9.5 -248t8.5 -250l33 -12q2 18 6 35q6 144 22 465q2 29 7.5 90t7.5 90q7 69 -17 121q20 10 43.5 25.5t34.5 21.5q81 45 234 37q23 -2 52.5 -18t44.5 -27.5t48 -38.5q107 -86 154 -246 q63 -218 -74 -395q-17 -22 -40 -44t-53.5 -48.5t-45.5 -41.5q6 -6 12 -10t11 -5.5t12.5 0t11.5 2t12.5 6t11.5 7t13 8.5t12 9q172 127 188 346q17 215 -129 405q-84 109 -200 134q-203 50 -390 -91q-19 -14 -35 -34.5t-23.5 -45z" />
<glyph unicode="&#x5d8;" horiz-adv-x="1040" d="M61 651q16 -240 111 -444q79 -171 246 -219q115 -32 233.5 14t184.5 148q166 254 86 512q-12 42 -44 74t-55 9q2 -8 7.5 -20.5t7.5 -17.5q5 -14 16.5 -39.5t15.5 -34.5q25 -61 19.5 -141t-29 -157t-68 -143t-96.5 -98q-68 -41 -120.5 -57.5t-110.5 -1.5q-130 38 -197 127 q-53 72 -104 211q-25 75 -45 233q-32 263 96 453q58 87 121.5 151t134 106.5t138.5 69.5t156.5 44t164 26t183.5 19q6 0 9 0.5t8 1t9 0.5q12 2 20 4t17.5 13t9.5 30q-114 3 -205 -1.5t-194.5 -24.5t-190 -57t-177 -101t-169.5 -154q-209 -235 -189 -535z" />
<glyph unicode="&#x5d9;" horiz-adv-x="315" d="M131 977q-3 -139 2 -387q4 -37 16 -35q16 3 29 58q6 27 6 51q4 212 4 319q0 2 -0.5 6t-1 6.5t-1 7t-1.5 7t-2.5 6.5t-3 5.5t-4 4.5t-5.5 2t-7 0q-8 -2 -19.5 -20t-11.5 -31z" />
<glyph unicode="&#x5da;" horiz-adv-x="831" d="M29 846q10 10 24.5 28t26 30t24.5 18q176 97 338 86q175 -10 234 -150q27 -59 30 -119.5t-11.5 -113t-45.5 -115.5q-37 -75 -103 -174t-140 -234q-94 -174 -107 -327q-13 -141 57 -228q52 -70 113 -47q164 64 281 166q2 1 8.5 7t9.5 9l8.5 8.5t7 10t3 10t-1.5 11t-9 10.5 q-34 -11 -96 -58q-111 -80 -180 -106q-37 -16 -66.5 -12.5t-46.5 34.5q-32 70 -37 103q-18 89 7 177.5t81 197.5q48 92 140.5 226.5t101.5 154.5q26 63 40.5 106.5t25.5 98t6.5 106.5t-23.5 104q-54 135 -168 176q-154 50 -297 0q-12 -5 -43 -15t-47 -16.5t-39.5 -17.5 t-42.5 -24t-35 -29q-67 -67 -28 -92z" />
<glyph unicode="&#x5db;" horiz-adv-x="841" d="M12 110q0 -3 2 -8q8 -18 21 -30.5t33.5 -20.5t33 -11.5t38.5 -7.5t32 -5q119 -25 192.5 -28t141 22.5t131.5 89.5q32 32 55.5 79t32.5 75.5t27 94.5q70 269 -80 482q-50 70 -113 112q-60 43 -151 64q-178 44 -312 -72q-7 -7 -12 -17.5t-10 -23.5t-8 -20q7 -3 16 -11 q7 6 20.5 19.5t20.5 19.5q22 22 27 25q100 38 192 35q66 -1 129 -32.5t110 -79.5t80.5 -104.5t47.5 -111.5q33 -120 -15 -295q-19 -74 -40 -124.5t-50.5 -87t-63.5 -56t-84.5 -27t-108 -4t-138.5 16.5q-56 9 -164 42q-34 10 -33 0z" />
<glyph unicode="&#x5dc;" horiz-adv-x="833" d="M-1 369.5q0 -86.5 31 -159.5t90.5 -128.5t133.5 -73.5q109 -25 222.5 -23.5t215.5 27.5q51 14 77 51.5t17 92.5q-54 335 -94 493q-17 66 -40 140t-38 118t-48 139t-44 128q-27 81 10 141.5t120 86t188 11.5q16 -2 123 -18q12 14 -10.5 31.5t-57.5 29.5q-68 23 -136.5 25 t-126.5 -17t-100.5 -54t-61.5 -90t-7 -120q6 -33 14.5 -66.5t13.5 -50.5t19 -62.5t18 -59.5q3 -10 47 -130q-172 33 -318 -52t-222 -247q-36 -76 -36 -162.5zM51 395q27 158 151 278q106 102 222 120q124 18 185 -76q25 -36 36 -88q47 -205 78 -363q6 -49 6 -79t-4.5 -52 t-19 -35t-32.5 -22t-52 -19q-144 -43 -373 17q-92 24 -153 119t-44 200z" />
<glyph unicode="&#x5dd;" horiz-adv-x="1241" d="M29 520q28 -210 41 -377q7 -99 16 -250t10 -172q1 0 5.5 -0.5t8 0t9 1.5t8.5 3t5.5 7t2.5 12q0 114 -10 342t-8 348q276 -311 479 -354q65 -14 104 -20.5t101 -9t105.5 7.5t93 38.5t87.5 75.5q159 194 101 401q-34 122 -120.5 202.5t-217.5 139.5q-72 31 -153.5 35 t-149.5 -11t-150 -46q-188 -70 -313 -275q-29 -51 -55 -98zM122.5 539.5q-0.5 32.5 12.5 50.5q9 12 32.5 43.5t36 47t33 39.5t40.5 42t42 33q186 132 435 100q86 -11 154 -57t149 -127q47 -47 68 -106.5t30 -141.5q-10 -59 -22 -102.5t-34.5 -91t-60 -83.5t-88.5 -59 q-72 -33 -194 -29q-137 6 -254 69.5t-238 174.5q-77 74 -129 147q-12 18 -12.5 50.5z" />
<glyph unicode="&#x5de;" horiz-adv-x="911" d="M31 -10q5 -1 13.5 -2t12.5 -2q40 25 43 59q10 69 9.5 237t9.5 236q6 40 26 139q15 -17 39.5 -42t34.5 -37q40 -50 140 -193.5t149 -200.5q96 -111 174 -179.5t109 -55.5q-52 170 -54 377.5t54 414t163 342.5q-28 22 -53 10t-53 -61q-87 -152 -140.5 -414.5t-29.5 -429.5 q3 -16 7.5 -48.5t6.5 -47.5q-10 9 -29.5 25t-32 27.5t-22.5 23.5q-50 53 -149.5 184.5t-130.5 167.5q-29 33 -79.5 98.5t-72.5 92.5q-51 60 -82 -15q-19 -46 -26 -104q-8 -68 -12 -229.5t-11 -223.5q-6 -53 -14 -149z" />
<glyph unicode="&#x5df;" horiz-adv-x="311" d="M45 -504q8 -11 20 20q27 66 44 224q14 126 23 304.5t24 303.5q15 134 30 255.5t22 178.5t13.5 107t7 71.5t-0.5 38.5t-5 39q-8 40 -21.5 53.5t-24.5 -2t-11 -49.5q-3 -44 -8.5 -152.5t-10.5 -166.5q-16 -157 -47 -423.5t-51 -473.5q-30 -297 -4 -328z" />
<glyph unicode="&#x5e0;" horiz-adv-x="434" d="M-442 -393q38 -16 43 -17q186 -19 260 -12q131 14 213 110q53 63 98 171q20 48 34.5 89.5t25 88t16.5 72t11.5 82t7.5 74.5t6.5 92.5t5.5 95.5q5 83 5.5 169.5t-2.5 216.5t-3 171q0 7 -21 39q-3 -3 -10 -7.5t-11.5 -8t-8.5 -8.5t-5 -9q-10 -66 -4 -127q17 -211 2 -430.5 t-69 -423.5q-21 -82 -39.5 -135.5t-45 -104.5t-58.5 -80.5t-78.5 -52.5t-106.5 -31.5t-141 -7.5h-119z" />
<glyph unicode="&#x5e1;" horiz-adv-x="1167" d="M29.5 346q35.5 -126 129 -221t214.5 -131q212 -58 456 31q154 58 219 176t42 288q20 26 10 66q-21 78 -72.5 150t-130.5 155q-113 129 -247 164.5t-294 -31.5q-112 -54 -184 -149t-129 -232q-49 -140 -13.5 -266zM73.5 430.5q-6.5 96.5 41.5 196.5q47 105 103.5 179.5 t141.5 121.5q261 152 506 -111q33 -33 74 -86q-22 11 -49 1q-14 -6 -8 -13q72 -87 112 -162t51.5 -151.5t-27.5 -146.5t-128 -130q-130 -92 -316.5 -96t-312.5 82q-83 56 -132.5 137.5t-56 178z" />
<glyph unicode="&#x5e2;" horiz-adv-x="995" d="M0 821q13 48 80 31q173 -54 448 -195q28 60 46 101t42.5 103.5t43.5 112.5t67.5 180t95.5 253q56 -6 33 -70q-3 -7 -130 -345t-144 -374q104 -55 183 -132.5t125 -162.5t70.5 -162t34.5 -155q26 -128 -17.5 -216.5t-172.5 -145.5q-124 -56 -222 -90t-192 -43 q-90 -8 -131.5 8.5t-64.5 85.5q-55 161 8 366q55 178 297 617q-21 11 -78 41.5t-129 68t-150 76.5q-19 9 -41.5 16.5t-55 17t-46.5 13.5zM244 -342q8 -57 43.5 -81.5t93.5 -12.5q100 23 150 35t152 49t171 80q102 63 90 166q-8 95 -39 221q-50 168 -120 254.5t-234 187.5 q-9 -17 -27 -50q-69 -127 -102 -190.5t-79.5 -166.5t-65.5 -171t-30.5 -154t-2.5 -167z" />
<glyph unicode="&#x5e3;" horiz-adv-x="915" d="M-48.5 823q-5.5 -34 7.5 -72t43 -77q30 -40 140 -53.5t180 -2.5q-2 27 -45.5 36.5t-104 16.5t-86.5 25q-148 101 8 227q134 108 427 195q48 15 97 27q50 -338 82 -449q3 -10 23 -118q-25 -3 -74 -13q-78 -19 -137.5 -45t-116.5 -73t-94 -113q-29 -52 -33 -113t14 -113 t58.5 -90.5t95.5 -48.5q154 -24 318 -8q86 7 109.5 37t23.5 121q0 44 -4 67q-9 40 -24 112.5t-28 131t-28 109.5q-36 123 -57.5 235.5t-29 178t-20.5 212.5q160 43 292 139t167 202t-82 194q-78 52 -152 57t-132 -34.5t-100.5 -111t-61 -175.5t-9.5 -224q-61 -17 -114 -33.5 t-113.5 -37.5t-110 -41.5t-100 -45t-88 -50.5t-70 -55t-49 -60.5t-22 -65.5zM341 124q-37 84 21 185q99 171 326 191q71 3 82 -66q8 -57 27 -163.5t26 -149.5q16 -89 -69 -107q-64 -11 -92.5 -14t-70.5 -0.5t-97 14.5q-116 26 -153 110zM686 1229q-5 65 1 129t23 118.5 t41.5 100.5t57.5 75t70 41.5t79.5 1t85.5 -47.5q65 -59 56.5 -120.5t-71.5 -119.5t-153 -104t-190 -74z" />
<glyph unicode="&#x5e4;" horiz-adv-x="1003" d="M39 1067q60 73 134 97t175 24q95 0 175 -39.5t161 -112.5q120 -106 183 -251.5t62.5 -292t-69 -287t-198.5 -236.5q-80 -59 -190 -61.5t-189 55.5q-120 88 -162.5 245t18.5 294q47 108 156 125q100 13 111 -68q5 -37 4.5 -69.5t-2.5 -57.5t-14 -53.5t-20.5 -46.5 t-31 -49.5t-36 -48.5t-46 -57t-51.5 -64q9 -9 29 -9q58 0 119 88t93 202t15 186q-13 58 -59 89.5t-99 22.5q-168 -29 -229 -196q-78 -226 57 -455q46 -78 112 -125.5t136.5 -59.5t140 -1t129.5 43q76 42 139 106.5t103.5 141t65 164t25 175t-18.5 174.5q-73 324 -361 512 q-247 157 -495 21q-27 -15 -42.5 -27t-26.5 -38.5t-3 -59.5z" />
<glyph unicode="&#x5e5;" horiz-adv-x="681" d="M-197 1231q-10 -77 6 -131t58 -83t98 -42.5t136 -9t159.5 17t181.5 35.5q18 -36 45 -296t35 -409q8 -175 -108 -273q-86 -73 -194 -71q-99 1 -144 63q-47 64 -8 165q35 99 126 147t179 0q5 80 -61 89q-68 10 -157 -52q-45 -31 -79 -72q-68 -85 -80 -182q-16 -115 81 -174 q88 -53 213 -34q136 21 216 114q63 74 69 176q12 156 -4 323q-10 129 -57 502q142 66 215 183q27 -11 69 -29.5t77 -32t81 -25.5q1 29 -7 43t-50 36.5t-141 60.5q38 75 58.5 161t18 166t-22.5 146t-66 105.5t-111 39.5q-66 -1 -123.5 -74t-87.5 -188.5t-21 -234.5 q-106 27 -201.5 35.5t-184 -3t-146 -60.5t-68.5 -132zM-157.5 1140q-3.5 35 7.5 81q15 58 53.5 93.5t87.5 49.5t120.5 11.5t139 -14.5t155.5 -34q3 -89 36 -250q-62 -16 -120 -27.5t-117 -19.5t-108.5 -9t-95.5 4t-77.5 19.5t-54.5 37.5t-26.5 58zM467 1380q-22 140 25 282 q41 125 108 156q68 32 135 -57q43 -58 57.5 -129.5t-4.5 -159.5t-73 -180q-88 34 -168 61zM473 1315q44 -13 104.5 -36.5t98.5 -33.5q-1 -2 -11 -17t-16 -23.5t-21 -25t-30.5 -29t-41 -27.5t-54.5 -27q-19 87 -29 219z" />
<glyph unicode="&#x5e6;" horiz-adv-x="847" d="M-29 131q-5 -19 8.5 -37.5t40.5 -34t50.5 -26t50.5 -19.5q205 -73 418 -16q133 33 227 123q72 72 62 200t-91 216q-23 24 -52.5 49.5t-66.5 54.5t-57 47q94 112 122.5 172t37.5 162q9 115 -72 217t-192 117q-208 28 -398 -103q-99 -63 -86 -157q16 -76 54 -52 q-24 64 6.5 118t95.5 84.5t147 43.5t160 4q86 -11 146 -65t75 -137q35 -171 -110 -330q-31 -33 -115 -80q-35 -20 -72 -38.5t-49.5 -25t-22.5 -17.5t-14 -28q20 -26 49 -22.5t60 31.5q46 36 93 38.5t84.5 -16.5t82.5 -57q139 -115 121 -293q-15 -128 -180 -180 q-46 -15 -85.5 -24t-71 -14t-68 -2.5t-61 5t-68 14t-71 20t-87.5 27.5t-101 31z" />
<glyph unicode="&#x5e7;" horiz-adv-x="942" d="M12 801q24 15 64.5 41.5t56.5 35.5t49 23.5t62.5 16.5t76 2t107.5 -7q93 -11 147 -37t111 -96q72 -88 105 -162t29.5 -156.5t-31 -161.5t-87.5 -200q50 -32 102 61t69 214.5t-1 210.5q-28 88 -58.5 148.5t-75 113t-108 82.5t-147.5 39q-107 14 -233 4q-46 -3 -89 -14.5 t-81 -31t-57 -52.5t-11 -74zM166 -459q-20 -39 2 -36q20 4 35 20q5 9 20 37.5t23.5 49t13.5 40.5q31 132 77 472t19 417q-24 0 -38.5 -18.5t-16.5 -37.5q-1 -11 -8.5 -110.5t-12 -148.5t-14 -151t-19 -167t-22 -144t-27.5 -134t-32 -89z" />
<glyph unicode="&#x5e8;" horiz-adv-x="800" d="M-2 762q10 -13 25 -11t22 11q43 47 74 75t74.5 57.5t93.5 41.5t108 8q149 -5 234 -182q29 -61 43 -117t18 -103t-9 -98.5t-29 -92t-51.5 -96.5t-66.5 -99t-83 -111q31 -31 57 -8q109 100 170.5 227.5t68 252.5t-44 242.5t-155.5 196.5q-50 39 -117.5 50.5t-135 -3.5 t-128.5 -47.5t-106 -83.5t-62 -110z" />
<glyph unicode="&#x5e9;" horiz-adv-x="845" d="M-2 160q3 -12 15 -15.5t16 0.5q17 12 59 38t68 46q21 -38 22 -39q60 -78 130.5 -128.5t137 -69t130.5 -7.5t112.5 48.5t80 106.5t36.5 161q1 13 -4.5 21.5t-11.5 11t-17 6.5t-16 6q-11 -97 -38.5 -165t-67.5 -103t-91.5 -41t-108.5 17.5t-119.5 75.5t-123.5 130 q114 87 218 204.5t180.5 244t123 256.5t46 242t-51.5 200q-40 68 -121.5 90.5t-161.5 4.5t-137 -62q-191 -144 -237 -432q-31 -166 -13 -397t76 -335q-32 -23 -131 -116zM102 670q-11 160 2 285t70 241q45 98 108 161.5t158 82.5q199 37 256 -104q52 -130 -28 -358 q-83 -235 -257 -443q-111 -130 -233 -216q-61 176 -76 351z" />
<glyph unicode="&#x5ea;" horiz-adv-x="980" d="M-397 -333q0 15 5.5 25t18 19t24 14t28.5 12.5t26 12.5q51 27 180.5 66.5t153.5 48.5q172 63 213 199q32 107 -10 316q-11 54 -38 170q-19 81 -28 124q-27 -70 -43 -139q-23 -1 -30.5 35t6.5 91t47 101q-14 67 -27 145q15 11 38 -10.5t32 -56.5l6 -27q3 2 8 6t8 6 q120 77 245.5 80t242.5 -69q233 -141 254 -443q6 -80 -46.5 -183t-125.5 -175t-127 -78q-16 0 -41 25q97 68 158.5 133.5t95.5 150.5q76 182 -27 350q-138 221 -418 224q-143 0 -211 -86q34 -133 50.5 -202.5t36 -178t17.5 -168t-15.5 -137t-51.5 -122t-101.5 -86.5 t-154.5 -65q-109 -28 -195 -63.5t-196 -98.5q-8 19 -8 34z" />
<glyph unicode="&#x5f3;" horiz-adv-x="196" d="M0 1386q-11 -6 9.5 -27.5t52.5 -50t40 -42.5q22 -36 25 -81.5t-3.5 -75t-21.5 -81.5l-59 -186q25 -7 52 26.5t47.5 91t33 122t10 125t-21.5 93.5q-26 38 -105 93q-7 6 -24.5 4.5t-34.5 -11.5z" />
<glyph unicode="&#x5f4;" horiz-adv-x="444" d="M35 1364q60 -71 89 -150t17 -165.5t-71 -159.5q-7 -9 -12 -19t-9.5 -24t-7.5 -21q3 -1 7 -3.5t6 -3.5t5.5 -2t6.5 0t7.5 3t10.5 6q60 44 95.5 138t33.5 194t-45 160q-18 24 -45 43t-51 22.5t-37 -18.5zM250 782q79 63 126.5 137t61.5 149t5 148.5t-40 145.5 q-11 30 -33.5 29t-43.5 -35q50 -101 55.5 -184.5t-25.5 -158.5t-104 -169q-19 -28 -2 -62z" />
<glyph unicode="&#x2000;" horiz-adv-x="944" />
<glyph unicode="&#x2001;" horiz-adv-x="1888" />
<glyph unicode="&#x2002;" horiz-adv-x="944" />
<glyph unicode="&#x2003;" horiz-adv-x="1888" />
<glyph unicode="&#x2004;" horiz-adv-x="629" />
<glyph unicode="&#x2005;" horiz-adv-x="472" />
<glyph unicode="&#x2006;" horiz-adv-x="314" />
<glyph unicode="&#x2007;" horiz-adv-x="314" />
<glyph unicode="&#x2008;" horiz-adv-x="236" />
<glyph unicode="&#x2009;" horiz-adv-x="377" />
<glyph unicode="&#x200a;" horiz-adv-x="104" />
<glyph unicode="&#x2010;" horiz-adv-x="718" d="M71 534q-10 -24 10 -33q6 -3 15 -3q172 8 297 8q7 0 73 -1.5t107 -0.5q65 1 77 31q8 18 -9 24q-4 2 -8 2q-70 3 -153.5 9.5t-96.5 7.5q-33 0 -42.5 1t-44.5 -1.5t-50 -4t-59 -5.5t-72 -7q-32 0 -44 -27z" />
<glyph unicode="&#x2011;" horiz-adv-x="718" d="M71 534q-10 -24 10 -33q6 -3 15 -3q172 8 297 8q7 0 73 -1.5t107 -0.5q65 1 77 31q8 18 -9 24q-4 2 -8 2q-70 3 -153.5 9.5t-96.5 7.5q-33 0 -42.5 1t-44.5 -1.5t-50 -4t-59 -5.5t-72 -7q-32 0 -44 -27z" />
<glyph unicode="&#x2012;" horiz-adv-x="718" d="M71 534q-10 -24 10 -33q6 -3 15 -3q172 8 297 8q7 0 73 -1.5t107 -0.5q65 1 77 31q8 18 -9 24q-4 2 -8 2q-70 3 -153.5 9.5t-96.5 7.5q-33 0 -42.5 1t-44.5 -1.5t-50 -4t-59 -5.5t-72 -7q-32 0 -44 -27z" />
<glyph unicode="&#x2013;" horiz-adv-x="1167" d="M70 527q-8 -20 13 -27l13 -2q448 16 621 16q78 0 172.5 -1.5t130.5 -0.5q66 1 77 26q6 14 -10 20q-4 1 -8 1q-323 16 -452 16q-295 -4 -512 -24q-35 0 -45 -24z" />
<glyph unicode="&#x2014;" horiz-adv-x="1472" d="M70 527q-8 -20 13 -27l13 -2q99 4 653.5 9t569.5 5q68 1 79 26q6 14 -12 20q-3 1 -8 1q-82 5 -626 2.5t-637 -10.5q-35 0 -45 -24z" />
<glyph unicode="&#x2018;" horiz-adv-x="196" d="M0 1386q-11 -6 9.5 -27.5t52.5 -50t40 -42.5q22 -36 25 -81.5t-3.5 -75t-21.5 -81.5l-59 -186q25 -7 52 26.5t47.5 91t33 122t10 125t-21.5 93.5q-26 38 -105 93q-7 6 -24.5 4.5t-34.5 -11.5z" />
<glyph unicode="&#x2019;" horiz-adv-x="196" d="M0 1386q-11 -6 9.5 -27.5t52.5 -50t40 -42.5q22 -36 25 -81.5t-3.5 -75t-21.5 -81.5l-59 -186q25 -7 52 26.5t47.5 91t33 122t10 125t-21.5 93.5q-26 38 -105 93q-7 6 -24.5 4.5t-34.5 -11.5z" />
<glyph unicode="&#x201a;" horiz-adv-x="196" d="M0 272q-11 -6 9.5 -27.5t52.5 -50t40 -42.5q22 -36 25 -81.5t-3.5 -75t-21.5 -81.5l-59 -186q25 -7 52 26.5t47.5 91t33 122t10 125t-21.5 93.5q-26 38 -105 93q-7 6 -24.5 4.5t-34.5 -11.5z" />
<glyph unicode="&#x201c;" horiz-adv-x="444" d="M35 1364q60 -71 89 -150t17 -165.5t-71 -159.5q-7 -9 -12 -19t-9.5 -24t-7.5 -21q3 -1 7 -3.5t6 -3.5t5.5 -2t6.5 0t7.5 3t10.5 6q60 44 95.5 138t33.5 194t-45 160q-18 24 -45 43t-51 22.5t-37 -18.5zM250 782q79 63 126.5 137t61.5 149t5 148.5t-40 145.5 q-11 30 -33.5 29t-43.5 -35q50 -101 55.5 -184.5t-25.5 -158.5t-104 -169q-19 -28 -2 -62z" />
<glyph unicode="&#x201d;" horiz-adv-x="444" d="M35 1364q60 -71 89 -150t17 -165.5t-71 -159.5q-7 -9 -12 -19t-9.5 -24t-7.5 -21q3 -1 7 -3.5t6 -3.5t5.5 -2t6.5 0t7.5 3t10.5 6q60 44 95.5 138t33.5 194t-45 160q-18 24 -45 43t-51 22.5t-37 -18.5zM250 782q79 63 126.5 137t61.5 149t5 148.5t-40 145.5 q-11 30 -33.5 29t-43.5 -35q50 -101 55.5 -184.5t-25.5 -158.5t-104 -169q-19 -28 -2 -62z" />
<glyph unicode="&#x201e;" horiz-adv-x="444" d="M35 205q60 -71 89 -150t17 -165.5t-71 -159.5q-7 -9 -12 -19t-9.5 -24t-7.5 -21q3 -1 7 -3.5t6 -3.5t5.5 -2t6.5 0t7.5 3t10.5 6q60 44 95.5 138t33.5 194t-45 160q-18 24 -45 43t-51 22.5t-37 -18.5zM250 -377q79 63 126.5 137t61.5 149t5 148.5t-40 145.5 q-11 30 -33.5 29t-43.5 -35q50 -101 55.5 -184.5t-25.5 -158.5t-104 -169q-19 -27 -2 -62z" />
<glyph unicode="&#x202f;" horiz-adv-x="377" />
<glyph unicode="&#x2039;" horiz-adv-x="196" d="M0 1386q-11 -6 9.5 -27.5t52.5 -50t40 -42.5q22 -36 25 -81.5t-3.5 -75t-21.5 -81.5l-59 -186q25 -7 52 26.5t47.5 91t33 122t10 125t-21.5 93.5q-26 38 -105 93q-7 6 -24.5 4.5t-34.5 -11.5z" />
<glyph unicode="&#x203a;" horiz-adv-x="196" d="M0 1386q-11 -6 9.5 -27.5t52.5 -50t40 -42.5q22 -36 25 -81.5t-3.5 -75t-21.5 -81.5l-59 -186q25 -7 52 26.5t47.5 91t33 122t10 125t-21.5 93.5q-26 38 -105 93q-7 6 -24.5 4.5t-34.5 -11.5z" />
<glyph unicode="&#x205f;" horiz-adv-x="472" />
<glyph unicode="&#x20ac;" horiz-adv-x="1019" d="M-44 490q0 -4 1 -9q20 0 30 -0.5t36 3.5t42.5 7.5t49 10t55.5 10.5v-37t0.5 -29.5t-0.5 -21t-1.5 -16t-5 -10t-7 -7t-12 -4t-16.5 -3.5t-23 -2.5t-29 -4.5q-38 -8 -51 -19.5t-13 -38.5q20 -3 39 -2t64.5 7.5t58.5 7.5q37 -160 124.5 -245t223.5 -85q277 3 467 137 q16 11 23.5 30t-4.5 36q-42 -34 -64 -47q-151 -92 -377 -109q-128 -11 -213.5 73t-115.5 216q73 9 232.5 26.5t238.5 26.5q28 4 80.5 16.5t60.5 14.5q0 15 -8.5 20t-30.5 2q-38 -4 -122 -13t-128 -13q-5 -1 -146 -10.5t-194 -16.5q2 74 17 125q78 12 127 18.5t126 14 t143 6.5t122 -10q18 -4 35 2q0 3 0.5 11.5t0 12t-3 9t-8.5 9t-16 5.5q-27 6 -358 -19q-25 -2 -80.5 -7t-87.5 -7q39 210 215 320q64 39 121 56.5t123 10.5t128 -47q27 -21 52 -8q-29 55 -95.5 84.5t-134.5 17.5q-377 -71 -452 -397q-6 -25 -18 -34.5t-38 -12.5 q-42 -3 -151 -29l-4 -1l-4.5 -1.5t-5 -2t-5 -2.5l-4.5 -3t-4 -4t-3 -5t-2 -6v-7z" />
<glyph unicode="&#x25fc;" horiz-adv-x="1024" d="M0 0z" />
</font>
</defs>
</svg>
